<svg xmlns="http://www.w3.org/2000/svg" version="1.1" xmlns:xlink="http://www.w3.org/1999/xlink" xmlns:svgjs="http://svgjs.dev/svgjs" viewBox="0 0 800 800"><defs><linearGradient x1="50%" y1="0%" x2="50%" y2="100%" id="nnneon-grad"><stop stop-color="hsl(200, 49%, 76%)" stop-opacity="1" offset="0%"></stop><stop stop-color="hsl(284, 64%, 67%)" stop-opacity="1" offset="100%"></stop></linearGradient><filter id="nnneon-filter" x="-100%" y="-100%" width="400%" height="400%" filterUnits="objectBoundingBox" primitiveUnits="userSpaceOnUse" color-interpolation-filters="sRGB">
	<feGaussianBlur stdDeviation="17 8" x="0%" y="0%" width="100%" height="100%" in="SourceGraphic" edgeMode="none" result="blur"></feGaussianBlur></filter><filter id="nnneon-filter2" x="-100%" y="-100%" width="400%" height="400%" filterUnits="objectBoundingBox" primitiveUnits="userSpaceOnUse" color-interpolation-filters="sRGB">
	<feGaussianBlur stdDeviation="10 17" x="0%" y="0%" width="100%" height="100%" in="SourceGraphic" edgeMode="none" result="blur"></feGaussianBlur></filter></defs><g stroke-width="44" stroke="url(#nnneon-grad)" fill="none"><path d="M380.1007189861408 112.9981986359503C392.41441296179414 105.89016455692087 407.5856480733621 105.89016455692087 419.89934204901544 113.00018856710341L638.600735504124 239.2672900275325C650.9144294797774 246.37532410656195 658.5000470355612 259.51483951077 658.5000470355612 273.73289759998204V526.2671005208401C658.5000470355612 540.4851586100522 650.9144294797774 553.6246740142603 638.600735504124 560.7346980244429L419.89934204901544 687.0017994848719C407.5856480733621 694.1098335639014 392.41441296179414 694.1098335639014 380.1007189861408 686.9998095537188L161.39932553103222 560.7327080932897C149.08563155537882 553.6246740142603 141.50001399959496 540.4851586100522 141.50001399959496 526.2671005208401V273.73289759998204C141.50001399959496 259.51483951077 149.08563155537882 246.37532410656195 161.39932553103222 239.2653000963794L380.1007189861408 112.9981986359503Z " filter="url(#nnneon-filter)"></path><path d="M392.1007189861408 112.9981986359503C404.41441296179414 105.89016455692087 419.5856480733621 105.89016455692087 431.89934204901544 113.00018856710341L650.600735504124 239.2672900275325C662.9144294797774 246.37532410656195 670.5000470355612 259.51483951077 670.5000470355612 273.73289759998204V526.2671005208401C670.5000470355612 540.4851586100522 662.9144294797774 553.6246740142603 650.600735504124 560.7346980244429L431.89934204901544 687.0017994848719C419.5856480733621 694.1098335639014 404.41441296179414 694.1098335639014 392.1007189861408 686.9998095537188L173.39932553103222 560.7327080932897C161.08563155537882 553.6246740142603 153.50001399959496 540.4851586100522 153.50001399959496 526.2671005208401V273.73289759998204C153.50001399959496 259.51483951077 161.08563155537882 246.37532410656195 173.39932553103222 239.2653000963794L392.1007189861408 112.9981986359503Z " filter="url(#nnneon-filter2)" opacity="0.25"></path><path d="M368.1007189861408 112.9981986359503C380.41441296179414 105.89016455692087 395.5856480733621 105.89016455692087 407.89934204901544 113.00018856710341L626.600735504124 239.2672900275325C638.9144294797774 246.37532410656195 646.5000470355612 259.51483951077 646.5000470355612 273.73289759998204V526.2671005208401C646.5000470355612 540.4851586100522 638.9144294797774 553.6246740142603 626.600735504124 560.7346980244429L407.89934204901544 687.0017994848719C395.5856480733621 694.1098335639014 380.41441296179414 694.1098335639014 368.1007189861408 686.9998095537188L149.39932553103222 560.7327080932897C137.08563155537882 553.6246740142603 129.50001399959496 540.4851586100522 129.50001399959496 526.2671005208401V273.73289759998204C129.50001399959496 259.51483951077 137.08563155537882 246.37532410656195 149.39932553103222 239.2653000963794L368.1007189861408 112.9981986359503Z " filter="url(#nnneon-filter2)" opacity="0.25"></path><path d="M380.1007189861408 112.9981986359503C392.41441296179414 105.89016455692087 407.5856480733621 105.89016455692087 419.89934204901544 113.00018856710341L638.600735504124 239.2672900275325C650.9144294797774 246.37532410656195 658.5000470355612 259.51483951077 658.5000470355612 273.73289759998204V526.2671005208401C658.5000470355612 540.4851586100522 650.9144294797774 553.6246740142603 638.600735504124 560.7346980244429L419.89934204901544 687.0017994848719C407.5856480733621 694.1098335639014 392.41441296179414 694.1098335639014 380.1007189861408 686.9998095537188L161.39932553103222 560.7327080932897C149.08563155537882 553.6246740142603 141.50001399959496 540.4851586100522 141.50001399959496 526.2671005208401V273.73289759998204C141.50001399959496 259.51483951077 149.08563155537882 246.37532410656195 161.39932553103222 239.2653000963794L380.1007189861408 112.9981986359503Z "></path></g></svg>